<svg width="43" height="49" viewBox="0 0 43 49" fill="none" xmlns="http://www.w3.org/2000/svg">
<path fill-rule="evenodd" clip-rule="evenodd" d="M41.2 35.7C41.7 35.2 42 34.7 42 33.9H42.1V2.6C42.1 2 41.8 1.4 41.4 1C41 0.500003 40.4 0.300003 39.8 0.300003H9C6.5 0.300003 4.3 1.2 2.6 2.9C0.9 4.7 0 6.8 0 9.3V39.3C0 41.8 0.8 43.9 2.6 45.7C4.4 47.4 6.5 48.3 9 48.3H39.7C40.3 48.3 40.9 48 41.3 47.6C41.8 47.2 42 46.6 42 46V44.5C42 43.8 41.8 43.2 41.2 42.7C41 42 40.9 40.8 40.9 39.2C40.9 37.5 41 36.4 41.2 35.7ZM9 36.1H35.7C35.5 38.1 35.5 40.1 35.7 42.1H9C8.2 42.1 7.5 41.8 6.9 41.2C6.3 40.6 6 39.9 6 39.1C6 38.3 6.3 37.6 6.9 37C7.5 36.4 8.2 36.1 9 36.1ZM12 12.7V14.6C12 15 12.2 15.2 12.6 15.2H32.5C32.9 15.2 33.1 15 33.1 14.6V12.7C33.1 12.3 32.9 12.1 32.5 12.1H12.6C12.2 12.1 12 12.3 12 12.7ZM12 20.6V18.7C12 18.3 12.2 18.1 12.6 18.1H32.5C32.9 18.1 33.1 18.3 33.1 18.7V20.6C33.1 21 32.9 21.2 32.5 21.2H12.6C12.2 21.2 12 21 12 20.6Z" fill="#778C79"/>
</svg>
